<svg width="880" height="160" viewBox="0 0 880 160" fill="none" xmlns="http://www.w3.org/2000/svg">
<path d="M157.04 126.833C147.649 126.833 139.425 124.786 132.373 120.688C125.331 116.594 119.873 110.995 115.998 103.896C112.123 96.7865 110.186 88.6979 110.186 79.625C110.186 73.625 111.107 67.7292 112.956 61.9375C114.816 56.1458 117.654 50.9323 121.477 46.2917C125.311 41.6562 130.123 37.9688 135.915 35.2292C141.706 32.4948 148.529 31.125 156.394 31.125C162.295 31.125 168.003 32.0573 173.519 33.9167C179.029 35.7812 183.967 38.6458 188.331 42.5208C192.706 46.3958 196.175 51.3438 198.748 57.3542C201.316 63.3542 202.602 70.5104 202.602 78.8125V83.5625H133.123C133.342 85.5365 133.779 87.4792 134.436 89.3958C135.087 91.3021 135.795 92.9583 136.561 94.375C138.738 98.6406 141.654 101.948 145.311 104.292C148.977 106.641 153.165 107.812 157.873 107.812C163.107 107.812 167.498 106.453 171.04 103.729C174.592 100.995 177.087 97.7708 178.519 94.0625H201.123C199.373 99.9531 196.587 105.385 192.769 110.354C188.946 115.328 184.087 119.323 178.186 122.333C172.279 125.333 165.232 126.833 157.04 126.833ZM134.102 67.0208H179.977C179.863 65.8125 179.566 64.4479 179.081 62.9167C178.592 61.3906 177.748 59.9167 176.54 58.5C174.467 55.224 171.712 52.7656 168.269 51.125C164.821 49.4896 161.081 48.6667 157.04 48.6667C152.998 48.6667 149.311 49.4896 145.977 51.125C142.644 52.7656 139.883 55.224 137.706 58.5C136.508 59.9167 135.665 61.3906 135.165 62.9167C134.675 64.4479 134.321 65.8125 134.102 67.0208Z" fill="#0F0F2B"/>
<path d="M240.947 125.021H218.822V33.1042H240.947V44.7292C244.541 39.7031 248.447 36.1823 252.655 34.1667C256.863 32.1406 261.311 31.125 266.009 31.125C272.009 31.125 277.166 32.3542 281.488 34.8125C285.806 37.2708 288.676 40.9583 290.093 45.875C293.145 40.75 296.91 37.0156 301.384 34.6667C305.869 32.3073 311.119 31.125 317.134 31.125C327.509 31.125 335.124 34.1615 339.988 40.2292C344.848 46.2865 347.28 54.4531 347.28 64.7292V125.021H325.155V67.5C325.155 61.1667 323.926 56.5573 321.468 53.6667C319.009 50.7656 315.431 49.3125 310.738 49.3125C308.332 49.3125 306.202 49.724 304.343 50.5417C302.494 51.3646 300.968 52.4323 299.759 53.75C297.686 56.1562 296.244 59.1875 295.426 62.8542C294.603 66.5104 294.197 71.0104 294.197 76.3542V125.021H272.072V67.5C272.072 61.2812 270.785 56.6979 268.218 53.75C265.645 50.7917 262.072 49.3125 257.488 49.3125C252.905 49.3125 249.186 50.8958 246.343 54.0625C244.593 56.1458 243.249 58.9115 242.322 62.3542C241.405 65.7865 240.947 70.4531 240.947 76.3542V125.021Z" fill="#0F0F2B"/>
<path d="M410.03 126.833C400.847 126.833 392.707 124.812 385.613 120.771C378.514 116.729 372.972 111.078 368.988 103.812C364.998 96.5365 363.009 88.0938 363.009 78.4792C363.009 69.2031 364.998 61.0156 368.988 53.9167C372.972 46.8073 378.488 41.2292 385.53 37.1875C392.582 33.1458 400.748 31.125 410.03 31.125C419.321 31.125 427.514 33.1458 434.613 37.1875C441.707 41.2292 447.248 46.8073 451.238 53.9167C455.222 61.0156 457.217 69.2031 457.217 78.4792C457.217 87.9948 455.248 96.3854 451.321 103.646C447.389 110.911 441.873 116.594 434.78 120.688C427.681 124.786 419.431 126.833 410.03 126.833ZM410.03 107.812C417.238 107.812 423.076 105.083 427.55 99.625C432.035 94.1667 434.28 87.1198 434.28 78.4792C434.28 73.0208 433.264 68.1667 431.238 63.9167C429.222 59.6562 426.41 56.2917 422.8 53.8333C419.201 51.375 414.946 50.1458 410.03 50.1458C405.332 50.1458 401.123 51.349 397.405 53.75C393.696 56.1562 390.8 59.4896 388.717 63.75C386.644 68 385.613 72.9115 385.613 78.4792C385.613 87.2292 387.905 94.3073 392.488 99.7083C397.082 105.115 402.931 107.812 410.03 107.812Z" fill="#0F0F2B"/>
<path d="M515.882 159.917C509.658 159.917 503.512 159.068 497.444 157.375C491.387 155.677 486.173 152.646 481.798 148.271C477.423 143.906 474.58 137.797 473.278 129.938H495.569C496.986 134.406 499.361 137.651 502.694 139.667C506.028 141.693 510.366 142.708 515.715 142.708C523.257 142.708 528.694 140.984 532.028 137.542C535.361 134.109 537.028 129.719 537.028 124.375V111.417C533.304 116.667 529.366 120.224 525.215 122.083C521.059 123.932 516.257 124.854 510.798 124.854C502.824 124.854 495.804 122.833 489.736 118.792C483.679 114.75 478.955 109.24 475.569 102.25C472.179 95.25 470.486 87.2708 470.486 78.3125C470.486 69.1458 472.179 61.0156 475.569 53.9167C478.955 46.8073 483.679 41.2292 489.736 37.1875C495.804 33.1458 502.824 31.125 510.798 31.125C516.257 31.125 521.059 32.1146 525.215 34.0833C529.366 36.0417 533.304 39.5938 537.028 44.7292V33.1042H559.132V119.125C559.132 129.609 557.22 137.823 553.403 143.771C549.58 149.729 544.392 153.906 537.84 156.312C531.283 158.714 523.965 159.917 515.882 159.917ZM516.048 105.854C520.741 105.854 524.861 104.656 528.403 102.25C531.955 99.849 534.741 96.5417 536.757 92.3333C538.783 88.125 539.798 83.349 539.798 78C539.798 72.6406 538.783 67.8646 536.757 63.6667C534.741 59.4583 531.955 56.1562 528.403 53.75C524.861 51.349 520.741 50.1458 516.048 50.1458C511.35 50.1458 507.257 51.375 503.757 53.8333C500.257 56.2917 497.548 59.625 495.632 63.8333C493.725 68.0312 492.778 72.75 492.778 78C492.778 83.2396 493.725 87.9583 495.632 92.1667C497.548 96.375 500.257 99.7083 503.757 102.167C507.257 104.625 511.35 105.854 516.048 105.854Z" fill="#0F0F2B"/>
<path d="M601.256 125.021H579.131V33.1042H601.256V44.0833C604.741 39.2812 608.642 35.9167 612.965 34C617.282 32.0833 622.116 31.125 627.465 31.125H630.09V52.4375H625.006C621.298 52.4375 618.1 52.9323 615.423 53.9167C612.741 54.8906 610.47 56.25 608.611 58C606.204 60.4062 604.381 63.5521 603.131 67.4375C601.881 71.3125 601.256 76.3073 601.256 82.4167V125.021Z" fill="#0F0F2B"/>
<path d="M668.756 126.833C660.131 126.833 652.949 124.516 647.215 119.875C641.475 115.224 638.61 108.531 638.61 99.7917C638.61 94.875 639.558 90.6979 641.465 87.25C643.381 83.8073 645.923 80.9948 649.09 78.8125C652.032 76.7448 655.386 75.1146 659.152 73.9167C662.928 72.7083 666.725 71.724 670.548 70.9583L697.923 65.875C697.699 60.1979 696.225 55.875 693.506 52.9167C690.767 49.974 686.673 48.5 681.215 48.5C677.058 48.5 673.371 49.7292 670.152 52.1875C666.928 54.6458 664.881 58.0625 664.006 62.4375H642.048C643.142 55.2188 645.657 49.3125 649.59 44.7292C653.517 40.1458 658.298 36.7396 663.923 34.5C669.548 32.25 675.366 31.125 681.381 31.125C686.725 31.125 691.86 31.8958 696.777 33.4375C701.694 34.9688 705.845 37.3125 709.235 40.4792C712.829 43.6458 715.392 47.2812 716.923 51.375C718.449 55.474 719.35 59.7396 719.631 64.1667C719.907 68.5833 720.048 72.9167 720.048 77.1667V125.021H697.923V112.562C695.631 116.604 692.845 119.667 689.569 121.75C686.72 123.599 683.517 124.906 679.965 125.667C676.423 126.443 672.683 126.833 668.756 126.833ZM674.152 109.458C678.527 109.458 682.465 108.583 685.965 106.833C690.767 104.432 694.017 101.208 695.715 97.1667C697.407 93.125 698.303 88.099 698.402 82.0833L676.465 86.5208C673.282 87.0625 670.678 87.7708 668.652 88.6458C666.636 89.5208 664.975 90.5573 663.673 91.75C662.798 92.625 662.09 93.6667 661.548 94.875C661.006 96.0729 660.735 97.4323 660.735 98.9583C660.735 102.349 662.011 104.948 664.569 106.75C667.136 108.557 670.329 109.458 674.152 109.458Z" fill="#0F0F2B"/>
<path d="M769.03 125.021H746.738V50.7917H732.821V33.1042H746.738V23.75C746.738 16.1146 748.894 10.2448 753.217 6.14583C757.535 2.05208 763.842 0 772.134 0H785.905V17.5417H777.384C774.978 17.5417 772.988 18.224 771.405 19.5833C769.821 20.9479 769.03 23.375 769.03 26.875V33.1042H785.905V50.7917H769.03V125.021Z" fill="#0F0F2B"/>
<path d="M816.056 158.125H800.827V139.438H810.806C813.65 139.438 815.999 139.026 817.848 138.208C819.708 137.385 821.296 135.281 822.619 131.896L825.077 125.354L791.161 33.1042H815.077L836.536 100.604L855.869 33.1042H879.64L843.911 135.833C841.077 144.026 837.609 149.792 833.515 153.125C829.416 156.458 823.598 158.125 816.056 158.125Z" fill="#0F0F2B"/>
<path d="M34.583 113.863L25.917 124.222H0.229492V120.456H11.0625V115.748H0.229492V103.503H26.1094L34.583 113.863ZM15.2969 120.456H22.3643V115.748H15.2969V120.456ZM3.99512 111.509H11.0625V106.8H3.99512V111.509ZM15.2969 111.509H22.3643V106.8H15.2969V111.509ZM23.5049 90.1594L14.8389 100.525H0.229492V96.7532H11.0625V92.0452H0.229492V79.8H15.0264L23.5049 90.1594ZM3.99512 87.8059H11.0625V83.0969H3.99512V87.8059ZM34.0205 47.6077V68.3264H34.0107V76.8215H0V64.3059H9.93262V60.1233H0.0107422V59.9875H0V56.1028H0.0107422V47.6077H34.0205ZM3.45312 72.9358H9.93262V68.6184H3.45312V72.9358ZM13.8125 72.9358H20.292V68.6184H13.8125V72.9358ZM23.7451 72.9358H30.2188V68.6184H23.7451V72.9358ZM13.8232 60.1233V64.3059H20.292V60.1233H13.8232ZM23.7549 60.1233V64.3059H30.2188V60.1233H23.7549ZM3.46387 51.4875V55.8059H9.9375V51.4875H3.46387ZM13.8232 51.4875V55.8059H20.2969V51.4875H13.8232ZM23.7549 51.4875V55.8059H30.2295V51.4875H23.7549ZM14.8438 23.9045L23.5107 34.2639L15.0361 44.6233H0.239258V32.3782H11.0674V27.6702H0.239258V23.9045H14.8438ZM4.00488 36.6184V41.3264H11.0674V36.6184H4.00488ZM25.9268 0.201416L34.5938 10.5657L26.1143 20.925H0.239258V8.68091H11.0674V3.97192H0.239258V0.201416H25.9268ZM4.00488 12.9202V17.6282H11.0674V12.9202H4.00488ZM15.3076 12.9202V17.6282H22.3701V12.9202H15.3076ZM15.3076 3.97192V8.68091H22.3701V3.97192H15.3076Z" fill="#8B5CF6"/>
<path d="M31.5312 0.116455C52.7083 0.116455 68.8909 5.52238 80.0732 16.3245C91.2658 27.1317 96.8652 42.5744 96.8652 62.6575C96.8652 82.6313 91.24 98.0224 79.9902 108.824C68.7507 119.632 52.599 125.032 31.5312 125.032H29.9561L39.3125 113.717L31.1719 103.907H31.1982C39.5003 103.907 46.8129 102.632 53.1357 100.074C59.469 97.5067 64.4066 93.1942 67.9482 87.137C71.5003 81.0693 73.2812 72.9074 73.2812 62.6575C73.2812 52.939 71.5312 45.0486 68.0312 38.9915C64.5417 32.9394 59.6617 28.4651 53.3857 25.5745C47.1046 22.6735 39.7661 21.22 31.3652 21.22H29.6729L39 10.7034L29.5811 0.116455H31.5312Z" fill="#8B5CF6"/>
</svg>
